<svg xmlns="http://www.w3.org/2000/svg" xmlns:xlink="http://www.w3.org/1999/xlink" width="120" zoomAndPan="magnify" viewBox="0 0 90 89.999999" height="120" preserveAspectRatio="xMidYMid meet" version="1.0"><defs><g/></defs><g fill="#ebe8eb" fill-opacity="1"><g transform="translate(9.287718, 71.336486)"><g><path d="M 0.6875 -4.34375 L 1.953125 -4.34375 C 2.273438 -4.34375 2.570312 -4.285156 2.84375 -4.171875 C 3.125 -4.054688 3.363281 -3.898438 3.5625 -3.703125 C 3.769531 -3.515625 3.929688 -3.285156 4.046875 -3.015625 C 4.160156 -2.753906 4.21875 -2.472656 4.21875 -2.171875 C 4.21875 -1.867188 4.160156 -1.582031 4.046875 -1.3125 C 3.929688 -1.050781 3.769531 -0.820312 3.5625 -0.625 C 3.363281 -0.4375 3.125 -0.285156 2.84375 -0.171875 C 2.570312 -0.0546875 2.273438 0 1.953125 0 L 0.6875 0 Z M 1.953125 -0.3125 C 2.234375 -0.3125 2.492188 -0.359375 2.734375 -0.453125 C 2.984375 -0.546875 3.191406 -0.675781 3.359375 -0.84375 C 3.535156 -1.007812 3.671875 -1.207031 3.765625 -1.4375 C 3.859375 -1.664062 3.90625 -1.910156 3.90625 -2.171875 C 3.90625 -2.429688 3.859375 -2.675781 3.765625 -2.90625 C 3.671875 -3.132812 3.535156 -3.332031 3.359375 -3.5 C 3.191406 -3.664062 2.984375 -3.796875 2.734375 -3.890625 C 2.492188 -3.984375 2.234375 -4.03125 1.953125 -4.03125 L 1 -4.03125 L 1 -0.3125 Z M 1.953125 -0.3125 "/></g></g></g><g fill="#ebe8eb" fill-opacity="1"><g transform="translate(15.430422, 71.336486)"><g><path d="M 2.578125 0.0625 C 2.273438 0.0625 1.988281 0.00390625 1.71875 -0.109375 C 1.457031 -0.222656 1.222656 -0.378906 1.015625 -0.578125 C 0.816406 -0.785156 0.660156 -1.023438 0.546875 -1.296875 C 0.429688 -1.566406 0.375 -1.859375 0.375 -2.171875 C 0.375 -2.484375 0.429688 -2.773438 0.546875 -3.046875 C 0.660156 -3.316406 0.816406 -3.550781 1.015625 -3.75 C 1.222656 -3.957031 1.457031 -4.117188 1.71875 -4.234375 C 1.988281 -4.347656 2.273438 -4.40625 2.578125 -4.40625 C 2.878906 -4.40625 3.160156 -4.347656 3.421875 -4.234375 C 3.691406 -4.117188 3.925781 -3.957031 4.125 -3.75 C 4.320312 -3.550781 4.476562 -3.316406 4.59375 -3.046875 C 4.71875 -2.773438 4.78125 -2.484375 4.78125 -2.171875 C 4.78125 -1.859375 4.71875 -1.566406 4.59375 -1.296875 C 4.476562 -1.023438 4.320312 -0.785156 4.125 -0.578125 C 3.925781 -0.378906 3.691406 -0.222656 3.421875 -0.109375 C 3.160156 0.00390625 2.878906 0.0625 2.578125 0.0625 Z M 2.578125 -0.25 C 2.835938 -0.25 3.082031 -0.296875 3.3125 -0.390625 C 3.539062 -0.492188 3.738281 -0.628906 3.90625 -0.796875 C 4.082031 -0.972656 4.21875 -1.175781 4.3125 -1.40625 C 4.414062 -1.644531 4.46875 -1.898438 4.46875 -2.171875 C 4.46875 -2.441406 4.414062 -2.691406 4.3125 -2.921875 C 4.21875 -3.160156 4.082031 -3.363281 3.90625 -3.53125 C 3.738281 -3.707031 3.539062 -3.84375 3.3125 -3.9375 C 3.082031 -4.039062 2.835938 -4.09375 2.578125 -4.09375 C 2.304688 -4.09375 2.054688 -4.039062 1.828125 -3.9375 C 1.597656 -3.84375 1.394531 -3.707031 1.21875 -3.53125 C 1.050781 -3.363281 0.921875 -3.160156 0.828125 -2.921875 C 0.734375 -2.691406 0.6875 -2.441406 0.6875 -2.171875 C 0.6875 -1.898438 0.734375 -1.644531 0.828125 -1.40625 C 0.921875 -1.175781 1.050781 -0.972656 1.21875 -0.796875 C 1.394531 -0.628906 1.597656 -0.492188 1.828125 -0.390625 C 2.054688 -0.296875 2.304688 -0.25 2.578125 -0.25 Z M 2.578125 -0.25 "/></g></g></g><g fill="#ebe8eb" fill-opacity="1"><g transform="translate(22.13151, 71.336486)"><g><path d="M 0.6875 -4.34375 L 0.9375 -4.34375 L 2.859375 -1.765625 L 4.78125 -4.34375 L 5.03125 -4.34375 L 5.03125 0 L 4.71875 0 L 4.71875 -3.75 L 2.859375 -1.265625 L 1 -3.75 L 1 0 L 0.6875 0 Z M 0.6875 -4.34375 "/></g></g></g><g fill="#ebe8eb" fill-opacity="1"><g transform="translate(29.390983, 71.336486)"><g><path d="M 1.921875 -4.34375 L 2.234375 -4.34375 L 4.03125 0 L 3.6875 0 L 3.15625 -1.265625 L 1 -1.265625 L 0.46875 0 L 0.125 0 Z M 3.046875 -1.578125 L 2.078125 -3.90625 L 1.109375 -1.578125 Z M 3.046875 -1.578125 "/></g></g></g><g fill="#ebe8eb" fill-opacity="1"><g transform="translate(35.099386, 71.336486)"><g><path d="M 0.6875 -4.34375 L 1 -4.34375 L 1 0 L 0.6875 0 Z M 0.6875 -4.34375 "/></g></g></g><g fill="#ebe8eb" fill-opacity="1"><g transform="translate(38.326087, 71.336486)"><g><path d="M 0.6875 -4.34375 L 0.9375 -4.34375 L 3.8125 -0.59375 L 3.8125 -4.34375 L 4.125 -4.34375 L 4.125 0 L 3.875 0 L 1 -3.75 L 1 0 L 0.6875 0 Z M 0.6875 -4.34375 "/></g></g></g><g fill="#ebe8eb" fill-opacity="1"><g transform="translate(44.685939, 71.336486)"><g/></g></g><g fill="#ebe8eb" fill-opacity="1"><g transform="translate(47.47834, 71.336486)"><g><path d="M 0.6875 -4.34375 L 2.296875 -4.34375 C 2.472656 -4.34375 2.632812 -4.3125 2.78125 -4.25 C 2.925781 -4.195312 3.050781 -4.125 3.15625 -4.03125 C 3.257812 -3.9375 3.335938 -3.820312 3.390625 -3.6875 C 3.441406 -3.550781 3.46875 -3.40625 3.46875 -3.25 C 3.46875 -3.070312 3.4375 -2.921875 3.375 -2.796875 C 3.320312 -2.679688 3.257812 -2.59375 3.1875 -2.53125 C 3.113281 -2.445312 3.023438 -2.378906 2.921875 -2.328125 C 3.054688 -2.265625 3.179688 -2.1875 3.296875 -2.09375 C 3.390625 -2 3.476562 -1.878906 3.5625 -1.734375 C 3.644531 -1.597656 3.6875 -1.421875 3.6875 -1.203125 C 3.6875 -1.035156 3.65625 -0.878906 3.59375 -0.734375 C 3.53125 -0.585938 3.441406 -0.457031 3.328125 -0.34375 C 3.210938 -0.238281 3.070312 -0.15625 2.90625 -0.09375 C 2.738281 -0.03125 2.554688 0 2.359375 0 L 0.6875 0 Z M 2.359375 -0.3125 C 2.679688 -0.3125 2.929688 -0.394531 3.109375 -0.5625 C 3.285156 -0.726562 3.375 -0.941406 3.375 -1.203125 C 3.375 -1.484375 3.285156 -1.707031 3.109375 -1.875 C 2.929688 -2.050781 2.679688 -2.140625 2.359375 -2.140625 L 1 -2.140625 L 1 -0.3125 Z M 2.296875 -2.453125 C 2.578125 -2.453125 2.789062 -2.523438 2.9375 -2.671875 C 3.082031 -2.816406 3.15625 -3.007812 3.15625 -3.25 C 3.15625 -3.488281 3.082031 -3.675781 2.9375 -3.8125 C 2.789062 -3.957031 2.578125 -4.03125 2.296875 -4.03125 L 1 -4.03125 L 1 -2.453125 Z M 2.296875 -2.453125 "/></g></g></g><g fill="#ebe8eb" fill-opacity="1"><g transform="translate(53.124701, 71.336486)"><g><path d="M 0.6875 -4.34375 L 2.328125 -4.34375 C 2.523438 -4.34375 2.703125 -4.304688 2.859375 -4.234375 C 3.023438 -4.171875 3.164062 -4.082031 3.28125 -3.96875 C 3.40625 -3.851562 3.5 -3.71875 3.5625 -3.5625 C 3.625 -3.414062 3.65625 -3.253906 3.65625 -3.078125 C 3.65625 -2.953125 3.640625 -2.835938 3.609375 -2.734375 C 3.585938 -2.628906 3.550781 -2.535156 3.5 -2.453125 C 3.457031 -2.378906 3.40625 -2.3125 3.34375 -2.25 C 3.289062 -2.1875 3.234375 -2.132812 3.171875 -2.09375 C 3.035156 -1.976562 2.878906 -1.898438 2.703125 -1.859375 L 3.75 0 L 3.40625 0 L 2.390625 -1.796875 L 1 -1.796875 L 1 0 L 0.6875 0 Z M 2.328125 -2.109375 C 2.484375 -2.109375 2.625 -2.128906 2.75 -2.171875 C 2.875 -2.222656 2.976562 -2.289062 3.0625 -2.375 C 3.15625 -2.457031 3.222656 -2.554688 3.265625 -2.671875 C 3.316406 -2.796875 3.34375 -2.929688 3.34375 -3.078125 C 3.34375 -3.210938 3.316406 -3.335938 3.265625 -3.453125 C 3.222656 -3.578125 3.15625 -3.679688 3.0625 -3.765625 C 2.976562 -3.847656 2.875 -3.910156 2.75 -3.953125 C 2.625 -4.003906 2.484375 -4.03125 2.328125 -4.03125 L 1 -4.03125 L 1 -2.109375 Z M 2.328125 -2.109375 "/></g></g></g><g fill="#ebe8eb" fill-opacity="1"><g transform="translate(58.771059, 71.336486)"><g><path d="M 1.921875 -4.34375 L 2.234375 -4.34375 L 4.03125 0 L 3.6875 0 L 3.15625 -1.265625 L 1 -1.265625 L 0.46875 0 L 0.125 0 Z M 3.046875 -1.578125 L 2.078125 -3.90625 L 1.109375 -1.578125 Z M 3.046875 -1.578125 "/></g></g></g><g fill="#ebe8eb" fill-opacity="1"><g transform="translate(64.479459, 71.336486)"><g><path d="M 0.6875 -4.34375 L 0.9375 -4.34375 L 3.8125 -0.59375 L 3.8125 -4.34375 L 4.125 -4.34375 L 4.125 0 L 3.875 0 L 1 -3.75 L 1 0 L 0.6875 0 Z M 0.6875 -4.34375 "/></g></g></g><g fill="#ebe8eb" fill-opacity="1"><g transform="translate(70.839313, 71.336486)"><g><path d="M 0.6875 -4.34375 L 1.953125 -4.34375 C 2.273438 -4.34375 2.570312 -4.285156 2.84375 -4.171875 C 3.125 -4.054688 3.363281 -3.898438 3.5625 -3.703125 C 3.769531 -3.515625 3.929688 -3.285156 4.046875 -3.015625 C 4.160156 -2.753906 4.21875 -2.472656 4.21875 -2.171875 C 4.21875 -1.867188 4.160156 -1.582031 4.046875 -1.3125 C 3.929688 -1.050781 3.769531 -0.820312 3.5625 -0.625 C 3.363281 -0.4375 3.125 -0.285156 2.84375 -0.171875 C 2.570312 -0.0546875 2.273438 0 1.953125 0 L 0.6875 0 Z M 1.953125 -0.3125 C 2.234375 -0.3125 2.492188 -0.359375 2.734375 -0.453125 C 2.984375 -0.546875 3.191406 -0.675781 3.359375 -0.84375 C 3.535156 -1.007812 3.671875 -1.207031 3.765625 -1.4375 C 3.859375 -1.664062 3.90625 -1.910156 3.90625 -2.171875 C 3.90625 -2.429688 3.859375 -2.675781 3.765625 -2.90625 C 3.671875 -3.132812 3.535156 -3.332031 3.359375 -3.5 C 3.191406 -3.664062 2.984375 -3.796875 2.734375 -3.890625 C 2.492188 -3.984375 2.234375 -4.03125 1.953125 -4.03125 L 1 -4.03125 L 1 -0.3125 Z M 1.953125 -0.3125 "/></g></g></g><g fill="#ebe8eb" fill-opacity="1"><g transform="translate(76.982019, 71.336486)"><g><path d="M 1.703125 -1.515625 L 0.09375 -4.34375 L 0.46875 -4.34375 L 1.859375 -1.859375 L 3.25 -4.34375 L 3.625 -4.34375 L 2.015625 -1.515625 L 2.015625 0 L 1.703125 0 Z M 1.703125 -1.515625 "/></g></g></g><g fill="#ebe8eb" fill-opacity="1"><g transform="translate(11.364371, 56.164876)"><g><path d="M 15.015625 -33.75 C 20.703125 -33.75 24.925781 -32.328125 27.6875 -29.484375 C 30.457031 -26.640625 31.84375 -22.5625 31.84375 -17.25 C 31.84375 -13.789062 31.164062 -10.765625 29.8125 -8.171875 C 28.46875 -5.585938 26.503906 -3.578125 23.921875 -2.140625 C 21.347656 -0.710938 18.238281 0 14.59375 0 C 14.113281 0 13.472656 -0.015625 12.671875 -0.046875 C 11.878906 -0.078125 11.0625 -0.0976562 10.21875 -0.109375 C 9.382812 -0.128906 8.613281 -0.140625 7.90625 -0.140625 C 6.800781 -0.140625 5.707031 -0.128906 4.625 -0.109375 C 3.539062 -0.0976562 2.664062 -0.0625 2 0 L 2 -0.953125 C 3.082031 -1.015625 3.898438 -1.140625 4.453125 -1.328125 C 5.015625 -1.523438 5.390625 -1.910156 5.578125 -2.484375 C 5.765625 -3.054688 5.859375 -3.910156 5.859375 -5.046875 L 5.859375 -28.703125 C 5.859375 -29.878906 5.765625 -30.742188 5.578125 -31.296875 C 5.390625 -31.847656 5.015625 -32.226562 4.453125 -32.4375 C 3.898438 -32.644531 3.082031 -32.765625 2 -32.796875 L 2 -33.75 C 2.664062 -33.71875 3.539062 -33.675781 4.625 -33.625 C 5.707031 -33.582031 6.769531 -33.578125 7.8125 -33.609375 C 8.925781 -33.640625 10.179688 -33.671875 11.578125 -33.703125 C 12.984375 -33.734375 14.128906 -33.75 15.015625 -33.75 Z M 13.828125 -32.890625 C 12.359375 -32.890625 11.398438 -32.617188 10.953125 -32.078125 C 10.515625 -31.535156 10.296875 -30.441406 10.296875 -28.796875 L 10.296875 -4.953125 C 10.296875 -3.304688 10.523438 -2.210938 10.984375 -1.671875 C 11.441406 -1.128906 12.40625 -0.859375 13.875 -0.859375 C 17.332031 -0.859375 20.015625 -1.484375 21.921875 -2.734375 C 23.835938 -3.992188 25.175781 -5.832031 25.9375 -8.25 C 26.695312 -10.664062 27.078125 -13.601562 27.078125 -17.0625 C 27.078125 -20.625 26.65625 -23.570312 25.8125 -25.90625 C 24.96875 -28.238281 23.582031 -29.984375 21.65625 -31.140625 C 19.738281 -32.304688 17.128906 -32.890625 13.828125 -32.890625 Z M 13.828125 -32.890625 "/></g></g></g><g fill="#ebe8eb" fill-opacity="1"><g transform="translate(45.833884, 56.164876)"><g><path d="M 2 -33.75 C 2.664062 -33.71875 3.539062 -33.6875 4.625 -33.65625 C 5.707031 -33.625 6.769531 -33.609375 7.8125 -33.609375 C 9.3125 -33.609375 10.742188 -33.625 12.109375 -33.65625 C 13.472656 -33.6875 14.441406 -33.703125 15.015625 -33.703125 C 18.347656 -33.703125 20.859375 -33.003906 22.546875 -31.609375 C 24.234375 -30.210938 25.078125 -28.414062 25.078125 -26.21875 C 25.078125 -25.101562 24.84375 -24.015625 24.375 -22.953125 C 23.914062 -21.890625 23.15625 -20.921875 22.09375 -20.046875 C 21.03125 -19.171875 19.609375 -18.460938 17.828125 -17.921875 L 17.828125 -17.828125 C 20.335938 -17.515625 22.300781 -16.921875 23.71875 -16.046875 C 25.132812 -15.171875 26.125 -14.144531 26.6875 -12.96875 C 27.257812 -11.789062 27.546875 -10.550781 27.546875 -9.25 C 27.546875 -7.4375 27.09375 -5.835938 26.1875 -4.453125 C 25.289062 -3.078125 23.984375 -1.988281 22.265625 -1.1875 C 20.546875 -0.394531 18.492188 0 16.109375 0 C 15.410156 0 14.363281 -0.0195312 12.96875 -0.0625 C 11.570312 -0.113281 9.882812 -0.140625 7.90625 -0.140625 C 6.800781 -0.140625 5.707031 -0.128906 4.625 -0.109375 C 3.539062 -0.0976562 2.664062 -0.0625 2 0 L 2 -0.953125 C 3.082031 -1.015625 3.898438 -1.140625 4.453125 -1.328125 C 5.015625 -1.523438 5.390625 -1.910156 5.578125 -2.484375 C 5.765625 -3.054688 5.859375 -3.910156 5.859375 -5.046875 L 5.859375 -28.703125 C 5.859375 -29.878906 5.765625 -30.742188 5.578125 -31.296875 C 5.390625 -31.847656 5.015625 -32.226562 4.453125 -32.4375 C 3.898438 -32.644531 3.082031 -32.765625 2 -32.796875 Z M 13.828125 -32.796875 C 12.359375 -32.796875 11.398438 -32.523438 10.953125 -31.984375 C 10.515625 -31.441406 10.296875 -30.347656 10.296875 -28.703125 L 10.296875 -5.046875 C 10.296875 -3.941406 10.390625 -3.101562 10.578125 -2.53125 C 10.773438 -1.957031 11.125 -1.570312 11.625 -1.375 C 12.132812 -1.1875 12.882812 -1.09375 13.875 -1.09375 C 16.988281 -1.09375 19.25 -1.816406 20.65625 -3.265625 C 22.070312 -4.710938 22.78125 -6.769531 22.78125 -9.4375 C 22.78125 -11.882812 22.117188 -13.773438 20.796875 -15.109375 C 19.484375 -16.441406 17.316406 -17.109375 14.296875 -17.109375 L 9.390625 -17.109375 C 9.390625 -17.109375 9.390625 -17.242188 9.390625 -17.515625 C 9.390625 -17.785156 9.390625 -17.921875 9.390625 -17.921875 L 13.484375 -17.921875 C 15.359375 -17.921875 16.804688 -18.273438 17.828125 -18.984375 C 18.847656 -19.703125 19.546875 -20.65625 19.921875 -21.84375 C 20.304688 -23.039062 20.5 -24.320312 20.5 -25.6875 C 20.5 -28.039062 19.984375 -29.8125 18.953125 -31 C 17.921875 -32.195312 16.210938 -32.796875 13.828125 -32.796875 Z M 13.828125 -32.796875 "/></g></g></g></svg>